<?xml version="1.0" encoding="utf-8"?>
<!-- Generator: Adobe Illustrator 21.1.0, SVG Export Plug-In . SVG Version: 6.00 Build 0)  -->
<!DOCTYPE svg PUBLIC "-//W3C//DTD SVG 1.1//EN" "http://www.w3.org/Graphics/SVG/1.1/DTD/svg11.dtd">
<svg version="1.1" id="Layer_1" xmlns="http://www.w3.org/2000/svg" xmlns:xlink="http://www.w3.org/1999/xlink" x="0px" y="0px"
	 viewBox="0 0 3600 1700" style="enable-background:new 0 0 3600 1700;" xml:space="preserve">
<style type="text/css">
	.st0{fill:#FBB03B;}
	.st1{fill:#F15A24;}
	.st2{fill:#ED1C24;}
	.st3{fill:#29ABE2;}
	.st4{fill:#93278F;}
	.st5{fill:#8CC63F;}
	.st6{fill:#662D91;}
	.st7{fill:#FCEE21;}
	.st8{fill:#999999;}
	.st9{fill:#2E3192;}
	.st10{fill:#FF00FF;}
	.st11{fill:#F2F2F2;}
	.st12{fill:#F9F4F7;}
	.st13{fill:#ED1E79;}
</style>
<polygon class="st0" points="232.9,998.7 362.1,888.6 574.9,1207.3 "/>
<polygon class="st1" points="633.2,905.5 573.9,1206.2 883.1,1367.2 861.9,962.7 "/>
<polygon class="st2" points="362.1,888.6 633.2,905.5 573.9,1206.2 "/>
<polygon class="st3" points="1164.7,1276.1 529.4,1593.8 573.9,1206.2 "/>
<polygon class="st3" points="232.9,998.7 391.8,1246.5 573.9,1206.2 "/>
<polygon class="st4" points="527.3,1659.4 573.9,1206.2 205.4,1286.7 "/>
<polygon class="st5" points="362.1,888.6 0,849.6 232.9,998.7 "/>
<polygon class="st2" points="861.9,962.7 1250,849.6 883.1,1367.2 "/>
<polygon class="st6" points="633.2,905.5 1250,849.6 850,1250 "/>
<polygon class="st6" points="1250,849.6 1732.2,1246.5 1800,1150 "/>
<polyline class="st6" points="232.9,998.7 231.9,1009.2 205.4,1286.7 391.8,1246.5 "/>
<polygon class="st7" points="1250,849.6 1482.4,1064.4 741.2,1487.9 "/>
<polygon class="st0" points="1250,849.6 1603.1,1339.6 1732.2,1246.5 "/>
<path class="st8" d="M27.5-5.5"/>
<path class="st8" d="M27.5-5.5"/>
<path class="st8" d="M14.8-5.5"/>
<g>
	<polygon class="st4" points="1800,638.2 1800,850 1588.2,744.1 1694.1,426.5 1800,532.4 	"/>
	<polygon class="st4" points="1800,850 1250,850 1376.5,744.1 	"/>
	<polygon class="st9" points="0,750 200,550 0,0 	"/>
	<polygon class="st9" points="0,0 1250,0 635.3,108.8 	"/>
	<g>
		<polygon class="st0" points="232.9,149.1 362.1,38.9 574.9,357.6 		"/>
		<polygon class="st1" points="633.2,55.9 573.9,356.6 883.1,517.5 861.9,113.1 		"/>
		<polygon class="st2" points="362.1,38.9 633.2,55.9 573.9,356.6 		"/>
		<polygon class="st3" points="1164.7,426.5 529.4,744.1 573.9,356.6 		"/>
		<polygon class="st3" points="232.9,149.1 391.8,396.8 573.9,356.6 		"/>
		<polygon class="st4" points="527.3,809.8 573.9,356.6 205.4,437.1 		"/>
		<polygon class="st5" points="362.1,38.9 0,0 232.9,149.1 		"/>
		<polygon class="st2" points="861.9,113.1 1250,0 883.1,517.5 		"/>
		<polygon class="st6" points="633.2,55.9 1250,0 861.9,113.1 		"/>
		<polygon class="st6" points="1250,0 1732.2,396.8 1800,108.8 		"/>
		<polyline class="st6" points="232.9,149.1 231.9,159.6 205.4,437.1 391.8,396.8 		"/>
		<polygon class="st7" points="1250,0 1482.4,214.7 741.2,638.2 		"/>
		<polygon class="st0" points="1250,0 1603.1,490 1732.2,396.8 		"/>
	</g>
	<g>
		<polygon class="st0" points="1671.5,719.8 1562.7,812.6 1383.5,544.2 		"/>
		<polygon class="st1" points="1334.5,798.3 1384.4,545.1 1164.7,426.5 1141.9,750.1 		"/>
		<polygon class="st2" points="1562.7,812.6 1334.5,798.3 1384.4,545.1 		"/>
		<polygon class="st3" points="1058.8,426.5 1420.9,221.1 1384.4,545.1 		"/>
		<polygon class="st3" points="1671.5,719.8 1537.7,511.2 1384.4,545.1 		"/>
		<polygon class="st4" points="1423.6,163.4 1384.4,545.1 1694.7,477.3 		"/>
		<polygon class="st2" points="1141.9,750.1 850,850 1164.7,426.5 		"/>
		<polygon class="st6" points="1800,850 1850,1250 1050,750 		"/>
		<polygon class="st6" points="850,850 55.3,549.3 0,750 		"/>
		<polyline class="st6" points="1671.5,719.8 1672.3,711 1694.7,477.3 1537.7,511.2 		"/>
		<polygon class="st10" points="850,850 529.4,638.2 1164.7,426.5 		"/>
		<polygon class="st0" points="850,850 402.4,396.8 55.1,549.3 		"/>
		<polygon class="st5" points="1562.7,812.6 1800,1100 1800,850 1671.5,719.8 		"/>
	</g>
	<g>
		<path class="st11" d="M607.4,323.1L607.4,323.1l-2.9,1.5l-0.4-1.7l3.6-1.9h1.9v16.5h-2.2V323.1z"/>
		<path class="st11" d="M626.6,329.1c0,5.6-2.1,8.7-5.7,8.7c-3.2,0-5.4-3-5.5-8.5c0-5.5,2.4-8.6,5.7-8.6
			C624.6,320.7,626.6,323.8,626.6,329.1z M617.6,329.3c0,4.3,1.3,6.7,3.4,6.7c2.3,0,3.4-2.7,3.4-6.9c0-4.1-1-6.7-3.4-6.7
			C619,322.5,617.6,324.9,617.6,329.3z"/>
	</g>
	<g>
		<path class="st11" d="M1023.2,634.2h-6.3l-0.6,4.2c0.4-0.1,0.7-0.1,1.3-0.1c1.3,0,2.5,0.3,3.6,0.9c1.3,0.7,2.4,2.2,2.4,4.2
			c0,3.2-2.6,5.6-6.1,5.6c-1.8,0-3.3-0.5-4.1-1l0.6-1.7c0.7,0.4,2,0.9,3.5,0.9c2.1,0,3.9-1.4,3.9-3.6c0-2.1-1.4-3.7-4.8-3.7
			c-0.9,0-1.7,0.1-2.3,0.2l1.1-7.9h7.9V634.2z"/>
		<path class="st11" d="M1026.6,647.5c0-0.9,0.6-1.6,1.5-1.6c0.9,0,1.5,0.7,1.5,1.6c0,0.9-0.6,1.6-1.5,1.6
			C1027.2,649.1,1026.6,648.4,1026.6,647.5z"/>
		<path class="st11" d="M1031.7,648.8v-1.4l1.8-1.7c4.2-4,6.1-6.1,6.1-8.6c0-1.7-0.8-3.2-3.3-3.2c-1.5,0-2.7,0.8-3.5,1.4l-0.7-1.6
			c1.1-1,2.8-1.7,4.7-1.7c3.6,0,5.1,2.4,5.1,4.8c0,3-2.2,5.5-5.7,8.9l-1.3,1.2v0.1h7.4v1.9H1031.7z"/>
	</g>
	<g>
		<path class="st11" d="M1609.1,227.8L1609.1,227.8l-2.9,1.5l-0.4-1.7l3.6-1.9h1.9v16.5h-2.2V227.8z"/>
		<path class="st11" d="M1622.1,227.8L1622.1,227.8l-2.9,1.5l-0.4-1.7l3.6-1.9h1.9v16.5h-2.2V227.8z"/>
		<path class="st11" d="M1641,225.7v1.5l-7.2,15h-2.3l7.2-14.6v-0.1h-8.1v-1.9H1641z"/>
	</g>
	<g>
		<path class="st11" d="M350.6,799.2v-1.4l1.8-1.7c4.2-4,6.1-6.1,6.1-8.6c0-1.7-0.8-3.2-3.3-3.2c-1.5,0-2.7,0.8-3.5,1.4l-0.7-1.6
			c1.1-1,2.8-1.7,4.7-1.7c3.6,0,5.1,2.4,5.1,4.8c0,3-2.2,5.5-5.7,8.9l-1.3,1.2v0.1h7.4v1.9H350.6z"/>
		<path class="st11" d="M370.5,799.2v-4.5h-7.7v-1.5l7.4-10.5h2.4v10.3h2.3v1.8h-2.3v4.5H370.5z M370.5,792.9v-5.5
			c0-0.9,0-1.7,0.1-2.6h-0.1c-0.5,1-0.9,1.7-1.4,2.4l-4,5.6v0.1H370.5z"/>
	</g>
	<g>
		<path class="st11" d="M1142.6,55.9v-1.4l1.8-1.7c4.2-4,6.1-6.1,6.1-8.6c0-1.7-0.8-3.2-3.3-3.2c-1.5,0-2.7,0.8-3.5,1.4l-0.7-1.6
			c1.1-1,2.8-1.7,4.7-1.7c3.6,0,5.1,2.4,5.1,4.8c0,3-2.2,5.5-5.7,8.9l-1.3,1.2V54h7.4v1.9H1142.6z"/>
		<path class="st11" d="M1162.5,55.9v-4.5h-7.7v-1.5l7.4-10.5h2.4v10.3h2.3v1.8h-2.3v4.5H1162.5z M1162.5,49.6v-5.5
			c0-0.9,0-1.7,0.1-2.6h-0.1c-0.5,1-0.9,1.7-1.4,2.4l-4,5.6v0.1H1162.5z"/>
	</g>
	<g>
		<path class="st12" d="M581.9,123.2c0.6,0.4,2.1,1,3.7,1c2.9,0,3.8-1.8,3.7-3.2c0-2.3-2.1-3.3-4.3-3.3h-1.2v-1.7h1.2
			c1.6,0,3.7-0.8,3.7-2.8c0-1.3-0.8-2.5-2.9-2.5c-1.3,0-2.6,0.6-3.3,1.1l-0.6-1.6c0.9-0.6,2.5-1.3,4.3-1.3c3.3,0,4.7,1.9,4.7,3.9
			c0,1.7-1,3.2-3,3.9v0.1c2,0.4,3.7,1.9,3.7,4.2c0,2.6-2.1,5-6,5c-1.9,0-3.5-0.6-4.3-1.1L581.9,123.2z"/>
	</g>
	<polygon class="st8" points="0,0 150,500 205.4,428.6 	"/>
	<polygon class="st0" points="0,0 205.4,437.1 232.9,149.1 	"/>
	<polygon class="st13" points="55.1,549.3 201.2,432.8 319.8,551.4 	"/>
	<polygon class="st10" points="1250,0 1800,0 1800,108.8 	"/>
	<path class="st5" d="M450,450"/>
	<polygon class="st3" points="1800,108.8 1800,638.2 1588.2,426.5 	"/>
	<polygon class="st5" points="0,750 0,850 200,1300 850,850 	"/>
</g>
<polygon class="st4" points="1800,638.2 1800,850 2011.8,744.1 1905.9,426.5 1800,532.4 "/>
<polygon class="st4" points="1800,850 2350,850 2223.5,744.1 "/>
<polygon class="st9" points="3600,750 3400,550 3600,0 "/>
<polygon class="st9" points="3600,0 2350,0 2964.7,108.8 "/>
<g>
	<polygon class="st0" points="3367.1,149.1 3237.9,38.9 3025.1,357.6 	"/>
	<polygon class="st1" points="2966.8,55.9 3026.1,356.6 2716.9,517.5 2738.1,113.1 	"/>
	<polygon class="st2" points="3237.9,38.9 2966.8,55.9 3026.1,356.6 	"/>
	<polygon class="st3" points="2435.3,426.5 3070.6,744.1 3026.1,356.6 	"/>
	<polygon class="st3" points="3367.1,149.1 3208.2,396.8 3026.1,356.6 	"/>
	<polygon class="st4" points="3072.7,809.8 3026.1,356.6 3394.6,437.1 	"/>
	<polygon class="st5" points="3237.9,38.9 3600,0 3367.1,149.1 	"/>
	<polygon class="st2" points="2738.1,113.1 2350,0 2716.9,517.5 	"/>
	<polygon class="st6" points="2966.8,55.9 2350,0 2738.1,113.1 	"/>
	<polygon class="st6" points="2050,0 1800,282 1800,108.8 	"/>
	<polyline class="st6" points="3367.1,149.1 3368.1,159.6 3394.6,437.1 3208.2,396.8 	"/>
	<polygon class="st7" points="2350,0 2117.6,214.7 2858.8,638.2 	"/>
	<polygon class="st0" points="2050,0 1900,550 1800,248 	"/>
</g>
<g>
	<polygon class="st0" points="1928.5,719.8 2037.3,812.6 2216.5,544.2 	"/>
	<polygon class="st1" points="2265.5,798.3 2215.6,545.1 2435.3,426.5 2458.1,750.1 	"/>
	<polygon class="st2" points="2037.3,812.6 2265.5,798.3 2215.6,545.1 	"/>
	<polygon class="st3" points="2541.2,426.5 2000,100 2050,650 	"/>
	<polygon class="st3" points="1928.5,719.8 2062.3,511.2 2215.6,545.1 	"/>
	<polygon class="st4" points="2258.4,251 1900,700 1864,379.2 	"/>
	<polygon class="st5" points="2037.3,812.6 1800,850 1928.5,719.8 	"/>
	<polygon class="st2" points="2458.1,750.1 2750,850 2435.3,426.5 	"/>
	<polygon class="st6" points="2337,1048.2 3037,1048.2 2450,500 	"/>
	<polygon class="st6" points="2750,850 3544.7,549.3 3600,750 	"/>
	<polyline class="st6" points="1928.5,719.8 1927.7,711 1900,400 2200,500 	"/>
	<polygon class="st10" points="2750,850 3070.6,638.2 2435.3,426.5 	"/>
	<polygon class="st0" points="2750,850 3197.6,396.8 3544.9,549.3 	"/>
</g>
<g>
	<path class="st11" d="M2254.9,323.1L2254.9,323.1l-2.9,1.5l-0.4-1.7l3.6-1.9h1.9v16.5h-2.2V323.1z"/>
	<path class="st11" d="M2274.1,329.1c0,5.6-2.1,8.7-5.7,8.7c-3.2,0-5.4-3-5.5-8.5c0-5.5,2.4-8.6,5.7-8.6
		C2272.1,320.7,2274.1,323.8,2274.1,329.1z M2265.1,329.3c0,4.3,1.3,6.7,3.4,6.7c2.3,0,3.4-2.7,3.4-6.9c0-4.1-1-6.7-3.4-6.7
		C2266.5,322.5,2265.1,324.9,2265.1,329.3z"/>
</g>
<g>
	<path class="st11" d="M2670.8,634.2h-6.3l-0.6,4.2c0.4-0.1,0.7-0.1,1.3-0.1c1.3,0,2.5,0.3,3.6,0.9c1.3,0.7,2.4,2.2,2.4,4.2
		c0,3.2-2.6,5.6-6.1,5.6c-1.8,0-3.3-0.5-4.1-1l0.6-1.7c0.7,0.4,2,0.9,3.5,0.9c2.1,0,3.9-1.4,3.9-3.6c0-2.1-1.4-3.7-4.8-3.7
		c-0.9,0-1.7,0.1-2.3,0.2l1.1-7.9h7.9V634.2z"/>
	<path class="st11" d="M2674.1,647.5c0-0.9,0.6-1.6,1.5-1.6c0.9,0,1.5,0.7,1.5,1.6c0,0.9-0.6,1.6-1.5,1.6
		C2674.7,649.1,2674.1,648.4,2674.1,647.5z"/>
	<path class="st11" d="M2679.2,648.8v-1.4l1.8-1.7c4.2-4,6.1-6.1,6.1-8.6c0-1.7-0.8-3.2-3.3-3.2c-1.5,0-2.7,0.8-3.5,1.4l-0.7-1.6
		c1.1-1,2.8-1.7,4.7-1.7c3.6,0,5.1,2.4,5.1,4.8c0,3-2.2,5.5-5.7,8.9l-1.3,1.2v0.1h7.4v1.9H2679.2z"/>
</g>
<g>
	<path class="st11" d="M3256.6,227.8L3256.6,227.8l-2.9,1.5l-0.4-1.7l3.6-1.9h1.9v16.5h-2.2V227.8z"/>
	<path class="st11" d="M3269.6,227.8L3269.6,227.8l-2.9,1.5l-0.4-1.7l3.6-1.9h1.9v16.5h-2.2V227.8z"/>
	<path class="st11" d="M3288.5,225.7v1.5l-7.2,15h-2.3l7.2-14.6v-0.1h-8.1v-1.9H3288.5z"/>
</g>
<g>
	<path class="st11" d="M1998.1,799.2v-1.4l1.8-1.7c4.2-4,6.1-6.1,6.1-8.6c0-1.7-0.8-3.2-3.3-3.2c-1.5,0-2.7,0.8-3.5,1.4l-0.7-1.6
		c1.1-1,2.8-1.7,4.7-1.7c3.6,0,5.1,2.4,5.1,4.8c0,3-2.2,5.5-5.7,8.9l-1.3,1.2v0.1h7.4v1.9H1998.1z"/>
	<path class="st11" d="M2018,799.2v-4.5h-7.7v-1.5l7.4-10.5h2.4v10.3h2.3v1.8h-2.3v4.5H2018z M2018,792.9v-5.5c0-0.9,0-1.7,0.1-2.6
		h-0.1c-0.5,1-0.9,1.7-1.4,2.4l-4,5.6v0.1H2018z"/>
</g>
<g>
	<path class="st11" d="M2790.1,55.9v-1.4l1.8-1.7c4.2-4,6.1-6.1,6.1-8.6c0-1.7-0.8-3.2-3.3-3.2c-1.5,0-2.7,0.8-3.5,1.4l-0.7-1.6
		c1.1-1,2.8-1.7,4.7-1.7c3.6,0,5.1,2.4,5.1,4.8c0,3-2.2,5.5-5.7,8.9l-1.3,1.2V54h7.4v1.9H2790.1z"/>
	<path class="st11" d="M2810,55.9v-4.5h-7.7v-1.5l7.4-10.5h2.4v10.3h2.3v1.8h-2.3v4.5H2810z M2810,49.6v-5.5c0-0.9,0-1.7,0.1-2.6
		h-0.1c-0.5,1-0.9,1.7-1.4,2.4l-4,5.6v0.1H2810z"/>
</g>
<g>
	<path class="st12" d="M2229.4,123.2c0.6,0.4,2.1,1,3.7,1c2.9,0,3.8-1.8,3.7-3.2c0-2.3-2.1-3.3-4.3-3.3h-1.2v-1.7h1.2
		c1.6,0,3.7-0.8,3.7-2.8c0-1.3-0.8-2.5-2.9-2.5c-1.3,0-2.6,0.6-3.3,1.1l-0.6-1.6c0.9-0.6,2.5-1.3,4.3-1.3c3.3,0,4.7,1.9,4.7,3.9
		c0,1.7-1,3.2-3,3.9v0.1c2,0.4,3.7,1.9,3.7,4.2c0,2.6-2.1,5-6,5c-1.9,0-3.5-0.6-4.3-1.1L2229.4,123.2z"/>
</g>
<polygon class="st8" points="3600,0 3450,500 3394.6,428.6 "/>
<polygon class="st0" points="3600,0 3394.6,437.1 3367.1,149.1 "/>
<polygon class="st13" points="3544.9,549.3 3398.8,432.8 3280.2,551.4 "/>
<polygon class="st10" points="2050,0 1800,0 1800,108.8 "/>
<path class="st5" d="M3150,450"/>
<polygon class="st3" points="1800,108.8 1800,638.2 1950,350 "/>
<path class="st8" d="M1827.5,850.4"/>
<path class="st8" d="M1827.5,850.4"/>
<path class="st8" d="M1814.8,850.4"/>
<polygon class="st5" points="2050,0 1800,642 2350,0 "/>
<path class="st8" d="M27.5,844.1"/>
<path class="st8" d="M27.5,844.1"/>
<path class="st8" d="M14.8,844.1"/>
<polygon class="st4" points="1800,1699.6 1250,1699.6 1376.5,1593.8 "/>
<polygon class="st5" points="0,1599.6 0,1699.6 850,1699.6 "/>
<polygon class="st9" points="0,1599.6 200,1399.6 0,849.6 "/>
<polygon class="st9" points="0,849.6 1250,849.6 635.3,958.5 "/>
<g>
	<polygon class="st0" points="1671.5,1569.5 1562.7,1662.2 1383.5,1393.8 	"/>
	<polygon class="st1" points="1334.5,1647.9 1384.4,1394.7 1164.7,1276.1 1141.9,1599.8 	"/>
	<polygon class="st2" points="1562.7,1662.2 1334.5,1647.9 1384.4,1394.7 	"/>
	<polygon class="st3" points="1058.8,1276.1 1420.9,1070.7 1384.4,1394.7 	"/>
	<polygon class="st3" points="837.9,855.4 1400,650 1163.4,974 	"/>
	<polygon class="st3" points="1671.5,1569.5 1537.7,1360.8 1384.4,1394.7 	"/>
	<polygon class="st4" points="1423.6,1013.1 1384.4,1394.7 1694.7,1326.9 	"/>
	<polygon class="st5" points="1562.7,1662.2 1800,1699.6 1671.5,1569.5 	"/>
	<polygon class="st2" points="1141.9,1599.8 850,1699.6 1164.7,1276.1 	"/>
	<polygon class="st6" points="1800,1699.6 850,1699.6 1141.9,1599.8 	"/>
	<polygon class="st6" points="850,1699.6 55.3,1398.9 0,1599.6 	"/>
	<polyline class="st1" points="1671.5,1569.5 2072,1700 2050,1150 1537.7,1360.8 	"/>
	<polygon class="st10" points="850,1699.6 529.4,1487.9 1164.7,1276.1 	"/>
	<polygon class="st0" points="850,1699.6 402.4,1246.5 55.1,1398.9 	"/>
</g>
<g>
	<path class="st11" d="M607.4,1172.7L607.4,1172.7l-2.9,1.5l-0.4-1.7l3.6-1.9h1.9v16.5h-2.2V1172.7z"/>
	<path class="st11" d="M626.6,1178.7c0,5.6-2.1,8.7-5.7,8.7c-3.2,0-5.4-3-5.5-8.5c0-5.5,2.4-8.6,5.7-8.6
		C624.6,1170.4,626.6,1173.5,626.6,1178.7z M617.6,1179c0,4.3,1.3,6.7,3.4,6.7c2.3,0,3.4-2.7,3.4-6.9c0-4.1-1-6.7-3.4-6.7
		C619,1172.1,617.6,1174.5,617.6,1179z"/>
</g>
<g>
	<path class="st11" d="M1023.2,1483.8h-6.3l-0.6,4.2c0.4-0.1,0.7-0.1,1.3-0.1c1.3,0,2.5,0.3,3.6,0.9c1.3,0.7,2.4,2.2,2.4,4.2
		c0,3.2-2.6,5.6-6.1,5.6c-1.8,0-3.3-0.5-4.1-1l0.6-1.7c0.7,0.4,2,0.9,3.5,0.9c2.1,0,3.9-1.4,3.9-3.6c0-2.1-1.4-3.7-4.8-3.7
		c-0.9,0-1.7,0.1-2.3,0.2l1.1-7.9h7.9V1483.8z"/>
	<path class="st11" d="M1026.6,1497.1c0-0.9,0.6-1.6,1.5-1.6c0.9,0,1.5,0.7,1.5,1.6c0,0.9-0.6,1.6-1.5,1.6
		C1027.2,1498.8,1026.6,1498.1,1026.6,1497.1z"/>
	<path class="st11" d="M1031.7,1498.5v-1.4l1.8-1.7c4.2-4,6.1-6.1,6.1-8.6c0-1.7-0.8-3.2-3.3-3.2c-1.5,0-2.7,0.8-3.5,1.4l-0.7-1.6
		c1.1-1,2.8-1.7,4.7-1.7c3.6,0,5.1,2.4,5.1,4.8c0,3-2.2,5.5-5.7,8.9l-1.3,1.2v0.1h7.4v1.9H1031.7z"/>
</g>
<g>
	<path class="st11" d="M1468.1,952.1L1468.1,952.1l-2.9,1.5l-0.4-1.7l3.6-1.9h1.9v16.5h-2.2V952.1z"/>
	<path class="st11" d="M1481.1,952.1L1481.1,952.1l-2.9,1.5l-0.4-1.7l3.6-1.9h1.9v16.5h-2.2V952.1z"/>
	<path class="st11" d="M1500,950v1.5l-7.2,15h-2.3l7.2-14.6v-0.1h-8.1V950H1500z"/>
</g>
<g>
	<path class="st11" d="M350.6,1648.8v-1.4l1.8-1.7c4.2-4,6.1-6.1,6.1-8.6c0-1.7-0.8-3.2-3.3-3.2c-1.5,0-2.7,0.8-3.5,1.4l-0.7-1.6
		c1.1-1,2.8-1.7,4.7-1.7c3.6,0,5.1,2.4,5.1,4.8c0,3-2.2,5.5-5.7,8.9l-1.3,1.2v0.1h7.4v1.9H350.6z"/>
	<path class="st11" d="M370.5,1648.8v-4.5h-7.7v-1.5l7.4-10.5h2.4v10.3h2.3v1.8h-2.3v4.5H370.5z M370.5,1642.6v-5.5
		c0-0.9,0-1.7,0.1-2.6h-0.1c-0.5,1-0.9,1.7-1.4,2.4l-4,5.6v0.1H370.5z"/>
</g>
<g>
	<path class="st11" d="M1142.6,905.5v-1.4l1.8-1.7c4.2-4,6.1-6.1,6.1-8.6c0-1.7-0.8-3.2-3.3-3.2c-1.5,0-2.7,0.8-3.5,1.4l-0.7-1.6
		c1.1-1,2.8-1.7,4.7-1.7c3.6,0,5.1,2.4,5.1,4.8c0,3-2.2,5.5-5.7,8.9l-1.3,1.2v0.1h7.4v1.9H1142.6z"/>
	<path class="st11" d="M1162.5,905.5V901h-7.7v-1.5l7.4-10.5h2.4v10.3h2.3v1.8h-2.3v4.5H1162.5z M1162.5,899.3v-5.5
		c0-0.9,0-1.7,0.1-2.6h-0.1c-0.5,1-0.9,1.7-1.4,2.4l-4,5.6v0.1H1162.5z"/>
</g>
<g>
	<path class="st12" d="M581.9,972.8c0.6,0.4,2.1,1,3.7,1c2.9,0,3.8-1.8,3.7-3.2c0-2.3-2.1-3.3-4.3-3.3h-1.2v-1.7h1.2
		c1.6,0,3.7-0.8,3.7-2.8c0-1.3-0.8-2.5-2.9-2.5c-1.3,0-2.6,0.6-3.3,1.1l-0.6-1.6c0.9-0.6,2.5-1.3,4.3-1.3c3.3,0,4.7,1.9,4.7,3.9
		c0,1.7-1,3.2-3,3.9v0.1c2,0.4,3.7,1.9,3.7,4.2c0,2.6-2.1,5-6,5c-1.9,0-3.5-0.6-4.3-1.1L581.9,972.8z"/>
</g>
<polygon class="st8" points="0,849.6 150,1349.6 205.4,1278.2 "/>
<polygon class="st0" points="0,849.6 205.4,1286.7 232.9,998.7 "/>
<polygon class="st13" points="55.1,1398.9 201.2,1282.5 319.8,1401.1 "/>
<polygon class="st10" points="1220,850 1850,1150 1400,1300 "/>
<path class="st5" d="M450,1299.6"/>
<polygon class="st3" points="1300,970.6 1300,1500 1050,1262.1 "/>
<polygon class="st4" points="1800,1699.6 2350,1699.6 2223.5,1593.8 "/>
<polygon class="st5" points="3600,1599.6 3600,1699.6 2750,1699.6 "/>
<polygon class="st10" points="3600,1599.6 3400,1399.6 3600,849.6 "/>
<g>
	<polygon class="st0" points="3367.1,998.7 3237.9,888.6 3025.1,1207.3 	"/>
	<polygon class="st1" points="3000,1050 3026.1,1206.2 2716.9,1367.2 2750,800 	"/>
	<polygon class="st2" points="3237.9,888.6 3000,1050 3026.1,1206.2 	"/>
	<polygon class="st3" points="2435.3,1276.1 3070.6,1593.8 3026.1,1206.2 	"/>
	<polygon class="st3" points="3367.1,998.7 3208.2,1246.5 3026.1,1206.2 	"/>
	<polygon class="st4" points="3072.7,1659.4 3026.1,1206.2 3394.6,1286.7 	"/>
	<polygon class="st5" points="3237.9,888.6 3600,849.6 3367.1,998.7 	"/>
	<polygon class="st2" points="2750,800 2350,849.6 2716.9,1367.2 	"/>
	<polygon class="st6" points="2850,1100 2350,849.6 2750,1250 	"/>
	<polygon class="st6" points="2050,849.6 1800,1131.6 1800,958.5 	"/>
	<polyline class="st6" points="3367.1,998.7 3368.1,1009.2 3394.6,1286.7 3208.2,1246.5 	"/>
	<polygon class="st7" points="2350,1050 1950,1100 2858.8,1487.9 	"/>
	<polygon class="st0" points="2050,849.6 1900,1399.6 1450,1250 	"/>
</g>
<g>
	<polygon class="st0" points="1928.5,1569.5 2037.3,1662.2 2216.5,1393.8 	"/>
	<polygon class="st1" points="2265.5,1647.9 2215.6,1394.7 2435.3,1276.1 2458.1,1599.8 	"/>
	<polygon class="st2" points="2037.3,1662.2 2265.5,1647.9 2215.6,1394.7 	"/>
	<polygon class="st3" points="2541.2,1276.1 2000,1100 2050,1499.6 	"/>
	<polygon class="st3" points="1928.5,1569.5 2062.3,1360.8 2215.6,1394.7 	"/>
	<polygon class="st4" points="2258.4,1100.6 1900,1549.6 1864,1228.9 	"/>
	<polygon class="st5" points="2037.3,1662.2 1800,1699.6 1550,1450 	"/>
	<polygon class="st2" points="2458.1,1599.8 2750,1699.6 2435.3,1276.1 	"/>
	<polygon class="st6" points="2050,1699.6 2750,1699.6 2458.1,1599.8 	"/>
	<polygon class="st6" points="2750,1699.6 3544.7,1398.9 3600,1599.6 	"/>
	<polyline class="st6" points="1628.5,1569.8 1627.7,1561 1600,1250 1900,1350 	"/>
	<polygon class="st10" points="2750,1699.6 3070.6,1487.9 2435.3,1276.1 	"/>
	<polygon class="st0" points="2750,1699.6 3197.6,1246.5 3544.9,1398.9 	"/>
</g>
<g>
	<path class="st11" d="M2254.9,1172.7L2254.9,1172.7l-2.9,1.5l-0.4-1.7l3.6-1.9h1.9v16.5h-2.2V1172.7z"/>
	<path class="st11" d="M2274.1,1178.7c0,5.6-2.1,8.7-5.7,8.7c-3.2,0-5.4-3-5.5-8.5c0-5.5,2.4-8.6,5.7-8.6
		C2272.1,1170.4,2274.1,1173.5,2274.1,1178.7z M2265.1,1179c0,4.3,1.3,6.7,3.4,6.7c2.3,0,3.4-2.7,3.4-6.9c0-4.1-1-6.7-3.4-6.7
		C2266.5,1172.1,2265.1,1174.5,2265.1,1179z"/>
</g>
<g>
	<path class="st11" d="M2670.8,1483.8h-6.3l-0.6,4.2c0.4-0.1,0.7-0.1,1.3-0.1c1.3,0,2.5,0.3,3.6,0.9c1.3,0.7,2.4,2.2,2.4,4.2
		c0,3.2-2.6,5.6-6.1,5.6c-1.8,0-3.3-0.5-4.1-1l0.6-1.7c0.7,0.4,2,0.9,3.5,0.9c2.1,0,3.9-1.4,3.9-3.6c0-2.1-1.4-3.7-4.8-3.7
		c-0.9,0-1.7,0.1-2.3,0.2l1.1-7.9h7.9V1483.8z"/>
	<path class="st11" d="M2674.1,1497.1c0-0.9,0.6-1.6,1.5-1.6c0.9,0,1.5,0.7,1.5,1.6c0,0.9-0.6,1.6-1.5,1.6
		C2674.7,1498.8,2674.1,1498.1,2674.1,1497.1z"/>
	<path class="st11" d="M2679.2,1498.5v-1.4l1.8-1.7c4.2-4,6.1-6.1,6.1-8.6c0-1.7-0.8-3.2-3.3-3.2c-1.5,0-2.7,0.8-3.5,1.4l-0.7-1.6
		c1.1-1,2.8-1.7,4.7-1.7c3.6,0,5.1,2.4,5.1,4.8c0,3-2.2,5.5-5.7,8.9l-1.3,1.2v0.1h7.4v1.9H2679.2z"/>
</g>
<g>
	<path class="st11" d="M3256.6,1077.5L3256.6,1077.5l-2.9,1.5l-0.4-1.7l3.6-1.9h1.9v16.5h-2.2V1077.5z"/>
	<path class="st11" d="M3269.6,1077.5L3269.6,1077.5l-2.9,1.5l-0.4-1.7l3.6-1.9h1.9v16.5h-2.2V1077.5z"/>
	<path class="st11" d="M3288.5,1075.4v1.5l-7.2,15h-2.3l7.2-14.6v-0.1h-8.1v-1.9H3288.5z"/>
</g>
<g>
	<path class="st11" d="M1998.1,1648.8v-1.4l1.8-1.7c4.2-4,6.1-6.1,6.1-8.6c0-1.7-0.8-3.2-3.3-3.2c-1.5,0-2.7,0.8-3.5,1.4l-0.7-1.6
		c1.1-1,2.8-1.7,4.7-1.7c3.6,0,5.1,2.4,5.1,4.8c0,3-2.2,5.5-5.7,8.9l-1.3,1.2v0.1h7.4v1.9H1998.1z"/>
	<path class="st11" d="M2018,1648.8v-4.5h-7.7v-1.5l7.4-10.5h2.4v10.3h2.3v1.8h-2.3v4.5H2018z M2018,1642.6v-5.5
		c0-0.9,0-1.7,0.1-2.6h-0.1c-0.5,1-0.9,1.7-1.4,2.4l-4,5.6v0.1H2018z"/>
</g>
<g>
	<path class="st11" d="M2790.1,905.5v-1.4l1.8-1.7c4.2-4,6.1-6.1,6.1-8.6c0-1.7-0.8-3.2-3.3-3.2c-1.5,0-2.7,0.8-3.5,1.4l-0.7-1.6
		c1.1-1,2.8-1.7,4.7-1.7c3.6,0,5.1,2.4,5.1,4.8c0,3-2.2,5.5-5.7,8.9l-1.3,1.2v0.1h7.4v1.9H2790.1z"/>
	<path class="st11" d="M2810,905.5V901h-7.7v-1.5l7.4-10.5h2.4v10.3h2.3v1.8h-2.3v4.5H2810z M2810,899.3v-5.5c0-0.9,0-1.7,0.1-2.6
		h-0.1c-0.5,1-0.9,1.7-1.4,2.4l-4,5.6v0.1H2810z"/>
</g>
<g>
	<path class="st12" d="M2229.4,972.8c0.6,0.4,2.1,1,3.7,1c2.9,0,3.8-1.8,3.7-3.2c0-2.3-2.1-3.3-4.3-3.3h-1.2v-1.7h1.2
		c1.6,0,3.7-0.8,3.7-2.8c0-1.3-0.8-2.5-2.9-2.5c-1.3,0-2.6,0.6-3.3,1.1l-0.6-1.6c0.9-0.6,2.5-1.3,4.3-1.3c3.3,0,4.7,1.9,4.7,3.9
		c0,1.7-1,3.2-3,3.9v0.1c2,0.4,3.7,1.9,3.7,4.2c0,2.6-2.1,5-6,5c-1.9,0-3.5-0.6-4.3-1.1L2229.4,972.8z"/>
</g>
<polygon class="st8" points="3600,849.6 3450,1349.6 3394.6,1278.2 "/>
<polygon class="st0" points="3600,849.6 3394.6,1286.7 3367.1,998.7 "/>
<polygon class="st13" points="3544.9,1398.9 3398.8,1282.5 3280.2,1401.1 "/>
<polygon class="st10" points="2050,849.6 1800,849.6 1800,958.5 "/>
<path class="st5" d="M3150,1299.6"/>
<polygon class="st3" points="1300,970.6 1300,1500 1450,1211.8 "/>
<path class="st8" d="M1827.5,1700"/>
<path class="st8" d="M1827.5,1700"/>
<path class="st8" d="M1814.8,1700"/>
<polygon class="st5" points="2050,849.6 1800,1491.6 2350,1050 "/>
<path class="st5" d="M450,1100"/>
<polygon class="st3" points="2750,800 3000,1050 3150,950 3100,800 "/>
<polygon class="st5" points="3000,800 3100,1000 3600,950 3600,700 "/>
<polygon class="st0" points="2050,849.6 2450,700 2350,1050 "/>
<polygon class="st3" points="2350,850 2350,1050 2700,1350 "/>
</svg>
